<svg width="2169" height="681" viewBox="0 0 2169 681" fill="none" xmlns="http://www.w3.org/2000/svg">
<g clip-path="url(#clip0_17111_11)">
<path d="M2.54414 294.733C3.38414 324.653 0.254137 355.013 4.17414 384.503C8.73414 404.243 46.4441 394.843 61.4841 393.923C122.154 384.513 175.314 341.013 196.394 283.563C215.524 230.283 205.044 172.823 206.754 117.113C206.834 98.0128 206.614 79.2828 207.024 60.1128C205.964 40.3628 215.394 4.9828 187.644 1.5328C129.534 -3.2572 62.5541 0.802803 24.3041 50.2128C-1.27586 80.9028 0.764137 121.633 1.20414 159.433V159.633L2.53414 294.743L2.54414 294.733Z" fill="#DADADA"/>
<path d="M2.06297 458.712C2.19297 504.502 5.86297 548.632 32.363 587.782C43.043 604.392 56.003 620.182 71.563 632.382C88.453 645.442 108.613 655.602 128.183 663.952C151.213 673.482 175.993 677.722 200.623 678.992C226.423 680.472 254.223 680.712 280.813 679.792C326.093 678.832 365.973 671.192 397.793 636.862C414.763 618.542 428.703 597.172 432.603 572.002C438.133 539.992 430.293 509.562 412.093 482.822C395.133 458.052 368.063 440.032 339.833 430.152C330.573 427.082 318.293 424.792 309.353 424.182C276.263 423.742 147.793 424.222 66.923 424.022C52.433 424.012 38.963 424.022 24.933 424.022C20.423 424.272 15.733 423.352 11.923 424.962C1.48297 430.792 2.01297 447.882 2.07297 458.532V458.732L2.06297 458.712Z" fill="#DADADA"/>
<path d="M679.744 385.603C678.904 355.683 682.034 325.323 678.114 295.833C673.554 276.093 635.844 285.492 620.804 286.412C560.134 295.822 506.974 339.323 485.894 396.773C466.764 450.053 477.244 507.513 475.534 563.223C475.454 582.323 475.674 601.053 475.264 620.223C476.324 639.973 466.894 675.352 494.644 678.802C552.744 683.602 619.734 679.542 657.984 630.122C683.554 599.432 681.514 558.703 681.074 520.913V520.713L679.744 385.603Z" fill="#DADADA"/>
<path d="M680.215 221.622C680.085 175.832 676.415 131.702 649.915 92.5524C639.235 75.9424 626.275 60.1524 610.715 47.9524C593.825 34.8923 573.665 24.7324 554.095 16.3824C531.065 6.85235 506.285 2.61235 481.655 1.34235C455.855 -0.137648 428.055 -0.377648 401.465 0.542352C356.185 1.50235 316.305 9.14235 284.485 43.4724C267.515 61.7924 253.575 83.1624 249.675 108.332C244.145 140.342 251.985 170.772 270.185 197.512C287.145 222.282 314.215 240.302 342.445 250.182C351.705 253.252 363.985 255.542 372.925 256.152C406.015 256.592 534.485 256.112 615.355 256.312C629.845 256.322 643.315 256.312 657.345 256.312C661.855 256.062 666.545 256.982 670.355 255.372C680.795 249.542 680.265 232.452 680.205 221.802V221.602L680.215 221.622Z" fill="#DADADA"/>
<path d="M1565.96 405.089H1240.29C1240.85 472.676 1295.32 536.515 1363.81 541.424C1425.33 545.828 1476.99 516.548 1505.95 462.768L1551.81 485.381C1506.6 564.118 1421.26 605.92 1331.01 584.378C1210.77 555.674 1157.93 415.209 1209.33 306.94C1248.74 223.921 1336.37 183.543 1426.01 205.418C1513.68 226.81 1576.15 314.828 1565.96 405.099L1565.96 405.089ZM1512.52 356.61C1502.83 304.102 1461.05 261.451 1408.7 251.039C1349.54 239.262 1292.19 262.593 1261.02 314.272C1256 322.615 1245.03 345.369 1244.69 354.53C1244.65 355.772 1244.87 355.843 1245.82 356.61H1512.51H1512.52Z" fill="#DADADA"/>
<path d="M2166.9 318.232H2117.99C2115.74 313.678 2116.28 307.668 2114.98 302.063C2097.41 226.629 1935.13 231.992 1946.34 314.435C1951.95 355.642 2033.62 360.752 2066.08 369.226C2114.49 381.871 2160.41 404.019 2167.77 459.254C2181.57 562.826 2075.04 600.841 1990.1 586.722C1926.31 576.127 1877.94 528.78 1879.53 461.648H1927.93C1927.75 501.269 1954.41 528.861 1991.45 537.911C2034.61 548.464 2115.78 538.425 2119.49 481.322C2123.77 415.32 2027.69 412.17 1982.36 400.555C1940.03 389.708 1901.04 368.114 1896.79 319.616C1887.12 208.924 2017.84 178.231 2100 216.054C2141.04 234.941 2165.9 272.795 2166.89 318.232H2166.9Z" fill="#DADADA"/>
<path d="M1618.89 461.647C1621.36 462.414 1620.14 469.05 1620.42 471.232C1629.08 540.263 1714.4 554.462 1768.88 533.112C1828.17 509.893 1825.99 443.215 1764.83 421.501C1703.06 399.574 1594.27 406.119 1588.09 316.757C1580.2 202.479 1726.91 175.039 1805.83 223.881C1838.96 244.373 1859.38 279.833 1858.34 319.242C1857.98 319.747 1857.05 318.232 1856.83 318.232H1808.94C1808.48 258.452 1742.25 242.828 1693.78 250.857C1659.26 256.584 1620.31 291.851 1643.75 328.665C1660.85 355.53 1733 362.387 1763.78 371.032C1824.24 388.001 1868.58 420.441 1860.24 490.3C1850.46 572.016 1758.67 596.719 1688.59 587.741C1622.2 579.238 1570.86 530.961 1571.99 461.637H1618.88L1618.89 461.647Z" fill="#DADADA"/>
<path d="M1027.54 92V205.116H1179.79V255.614H1027.54L1027.5 462.193C1029.13 497.36 1039.2 529.638 1076.94 538.909C1112.15 547.555 1148.52 535.86 1179.79 520.225V573.754C1163.4 579.399 1147.07 585.348 1129.74 587.752C1047.33 599.175 982.189 559.654 979.154 472.242V255.614H889.406V206.126L979.144 205.116V92H1027.54Z" fill="#DADADA"/>
</g>
<defs>
<clipPath id="clip0_17111_11">
<rect width="2169" height="681" fill="white"/>
</clipPath>
</defs>
</svg>
