<svg width="2169" height="681" viewBox="0 0 2169 681" fill="none" xmlns="http://www.w3.org/2000/svg">
<g clip-path="url(#clip0_17111_2)">
<path d="M2.54414 294.733C3.38414 324.653 0.254137 355.013 4.17414 384.503C8.73414 404.243 46.4441 394.843 61.4841 393.923C122.154 384.513 175.314 341.013 196.394 283.563C215.524 230.283 205.044 172.823 206.754 117.113C206.834 98.0128 206.614 79.2828 207.024 60.1128C205.964 40.3628 215.394 4.9828 187.644 1.5328C129.534 -3.2572 62.5541 0.802803 24.3041 50.2128C-1.27586 80.9028 0.764137 121.633 1.20414 159.433V159.633L2.53414 294.743L2.54414 294.733Z" fill="#1E1E20"/>
<path d="M2.06297 458.712C2.19297 504.502 5.86297 548.632 32.363 587.782C43.043 604.392 56.003 620.182 71.563 632.382C88.453 645.442 108.613 655.602 128.183 663.952C151.213 673.482 175.993 677.722 200.623 678.992C226.423 680.472 254.223 680.712 280.813 679.792C326.093 678.832 365.973 671.192 397.793 636.862C414.763 618.542 428.703 597.172 432.603 572.002C438.133 539.992 430.293 509.562 412.093 482.822C395.133 458.052 368.063 440.032 339.833 430.152C330.573 427.082 318.293 424.792 309.353 424.182C276.263 423.742 147.793 424.222 66.923 424.022C52.433 424.012 38.963 424.022 24.933 424.022C20.423 424.272 15.733 423.352 11.923 424.962C1.48297 430.792 2.01297 447.882 2.07297 458.532V458.732L2.06297 458.712Z" fill="#1E1E20"/>
<path d="M679.744 385.603C678.904 355.683 682.034 325.323 678.114 295.833C673.554 276.093 635.844 285.492 620.804 286.412C560.134 295.822 506.974 339.323 485.894 396.773C466.764 450.053 477.244 507.513 475.534 563.223C475.454 582.323 475.674 601.053 475.264 620.223C476.324 639.973 466.894 675.352 494.644 678.802C552.744 683.602 619.734 679.542 657.984 630.122C683.554 599.432 681.514 558.703 681.074 520.913V520.713L679.744 385.603Z" fill="#1E1E20"/>
<path d="M680.215 221.622C680.085 175.832 676.415 131.702 649.915 92.5524C639.235 75.9424 626.275 60.1524 610.715 47.9524C593.825 34.8923 573.665 24.7324 554.095 16.3824C531.065 6.85235 506.285 2.61235 481.655 1.34235C455.855 -0.137648 428.055 -0.377648 401.465 0.542352C356.185 1.50235 316.305 9.14235 284.485 43.4724C267.515 61.7924 253.575 83.1624 249.675 108.332C244.145 140.342 251.985 170.772 270.185 197.512C287.145 222.282 314.215 240.302 342.445 250.182C351.705 253.252 363.985 255.542 372.925 256.152C406.015 256.592 534.485 256.112 615.355 256.312C629.845 256.322 643.315 256.312 657.345 256.312C661.855 256.062 666.545 256.982 670.355 255.372C680.795 249.542 680.265 232.452 680.205 221.802V221.602L680.215 221.622Z" fill="#1E1E20"/>
<path d="M1565.97 404.591H1240.29C1240.85 472.179 1295.32 536.019 1363.82 540.928C1425.33 545.331 1476.99 516.052 1505.96 462.271L1551.82 484.885C1506.6 563.622 1421.26 605.424 1331.01 583.882C1210.78 555.178 1157.93 414.712 1209.34 306.442C1248.75 223.422 1336.37 183.043 1426.01 204.919C1513.68 226.311 1576.15 314.33 1565.96 404.602L1565.97 404.591ZM1512.53 356.113C1502.83 303.604 1461.05 260.953 1408.7 250.54C1349.54 238.763 1292.2 262.094 1261.03 313.774C1256 322.117 1245.03 344.872 1244.7 354.032C1244.65 355.274 1244.87 355.345 1245.82 356.113H1512.52H1512.53Z" fill="#1E1E20"/>
<path d="M2166.91 317.734H2118C2115.75 313.18 2116.29 307.17 2114.99 301.565C2097.42 226.13 1935.14 231.493 1946.35 313.937C1951.95 355.144 2033.63 360.255 2066.09 368.728C2114.5 381.373 2160.42 403.522 2167.79 458.757C2181.58 562.33 2075.05 600.346 1990.11 586.226C1926.32 575.631 1877.95 528.284 1879.54 461.151H1927.94C1927.76 500.772 1954.42 528.365 1991.46 537.414C2034.62 547.968 2115.79 537.929 2119.5 480.825C2123.78 414.823 2027.7 411.672 1982.37 400.058C1940.04 389.21 1901.05 367.617 1896.8 319.118C1887.13 208.425 2017.85 177.732 2100.01 215.555C2141.05 234.442 2165.91 272.296 2166.9 317.734H2166.91Z" fill="#1E1E20"/>
<path d="M1618.9 461.15C1621.37 461.918 1620.15 468.554 1620.42 470.735C1629.08 539.767 1714.4 553.966 1768.89 532.616C1828.18 509.396 1826 442.718 1764.84 421.004C1703.07 399.077 1594.28 405.622 1588.1 316.259C1580.2 201.98 1726.92 174.54 1805.84 223.382C1838.97 243.874 1859.39 279.335 1858.34 318.744C1857.98 319.249 1857.06 317.734 1856.84 317.734H1808.95C1808.49 257.954 1742.25 242.329 1693.79 250.359C1659.27 256.085 1620.32 291.353 1643.75 328.167C1660.86 355.032 1733.01 361.89 1763.79 370.535C1824.24 387.503 1868.59 419.943 1860.24 489.803C1850.47 571.52 1758.68 596.224 1688.6 587.246C1622.2 578.742 1570.87 530.464 1572 461.14H1618.88L1618.9 461.15Z" fill="#1E1E20"/>
<path d="M1027.54 91.5V204.617H1179.79V255.116H1027.54L1027.5 461.696C1029.14 496.863 1039.2 529.142 1076.95 538.413C1112.15 547.059 1148.52 535.364 1179.79 519.728V573.258C1163.4 578.903 1147.07 584.852 1129.74 587.256C1047.34 598.679 982.19 559.158 979.154 471.745V255.116H889.406V205.627L979.145 204.617V91.5H1027.54Z" fill="#1E1E20"/>
</g>
<defs>
<clipPath id="clip0_17111_2">
<rect width="2169" height="681" fill="white"/>
</clipPath>
</defs>
</svg>
